<svg width="14" height="17" viewBox="0 0 14 17" fill="none" xmlns="http://www.w3.org/2000/svg">
<path d="M7 16.5C7.9625 16.5 8.75 15.7615 8.75 14.859H5.25C5.25 15.7615 6.0375 16.5 7 16.5ZM12.25 11.5769V7.47436C12.25 4.95538 10.8237 2.84667 8.3125 2.28872V1.73077C8.3125 1.04974 7.72625 0.5 7 0.5C6.27375 0.5 5.6875 1.04974 5.6875 1.73077V2.28872C3.185 2.84667 1.75 4.94718 1.75 7.47436V11.5769L0 13.2179V14.0385H14V13.2179L12.25 11.5769ZM10.5 12.3974H3.5V7.47436C3.5 5.43949 4.82125 3.78205 7 3.78205C9.17875 3.78205 10.5 5.43949 10.5 7.47436V12.3974Z" fill="#53596C"/>
</svg>
