<svg width="24" height="24" viewBox="0 0 24 24" fill="none" xmlns="http://www.w3.org/2000/svg">
<path d="M15.6324 4.87109C15.8829 4.37949 16.4883 4.17955 16.9491 4.48294C18.3473 5.40345 19.4669 6.69992 20.1733 8.23209C21.0196 10.068 21.2233 12.1353 20.7513 14.101C20.2794 16.0667 19.1594 17.8163 17.5718 19.0679C15.9843 20.3194 14.0216 21 12 21C9.97844 21 8.01574 20.3194 6.42816 19.0679C4.84059 17.8164 3.7206 16.0668 3.24867 14.1011C2.77674 12.1353 2.98036 10.068 3.8267 8.23211C4.53304 6.69993 5.65272 5.40346 7.05088 4.48295C7.51171 4.17956 8.11712 4.3795 8.3676 4.8711C8.61809 5.36269 8.4173 5.95877 7.96631 6.27661C6.96388 6.98309 6.15949 7.94427 5.64118 9.06859C4.98272 10.4969 4.82431 12.1053 5.19147 13.6346C5.55863 15.1639 6.42998 16.5251 7.66511 17.4988C8.90024 18.4725 10.4272 19.002 12 19.002C13.5728 19.002 15.0998 18.4725 16.3349 17.4988C17.57 16.5251 18.4414 15.1639 18.8085 13.6346C19.1757 12.1053 19.0173 10.4969 18.3588 9.06857C17.8405 7.94426 17.0361 6.98308 16.0337 6.2766C15.5827 5.95876 15.3819 5.36268 15.6324 4.87109Z" fill="#2D9CDB"/>
<path fill-rule="evenodd" clip-rule="evenodd" d="M12 2C12.5523 2 13 2.44772 13 3V8C13 8.55228 12.5523 9 12 9C11.4477 9 11 8.55228 11 8V3C11 2.44772 11.4477 2 12 2Z" fill="#F9896B"/>
</svg>
